<svg width="108" height="107" viewBox="0 0 108 107" fill="none" xmlns="http://www.w3.org/2000/svg">
<path d="M51.7996 105.698C61.8511 105.717 71.6826 102.755 80.0498 97.1848C88.417 91.6149 94.9437 83.688 98.804 74.4073C102.664 65.1266 103.685 54.9092 101.736 45.0484C99.7869 35.1876 94.9565 26.1265 87.856 19.012C80.7555 11.8975 71.704 7.04937 61.847 5.08112C51.9901 3.11287 41.7708 4.11305 32.4825 7.95502C23.1942 11.797 15.2544 18.3081 9.66797 26.6643C4.08156 35.0204 1.09969 44.846 1.09967 54.8976C1.08942 61.5632 2.39304 68.1655 4.9361 74.3269C7.47915 80.4884 11.2117 86.0881 15.9204 90.806C20.6291 95.524 26.2215 99.2676 32.3779 101.823C38.5344 104.378 45.134 105.695 51.7996 105.698Z" fill="#F1F3F9" stroke="#D6DCE8" stroke-width="2" stroke-miterlimit="10"/>
<path d="M99.1996 21.6004C100.01 21.6004 100.803 21.3599 101.477 20.9094C102.152 20.4589 102.677 19.8186 102.987 19.0694C103.298 18.3202 103.379 17.4959 103.221 16.7005C103.063 15.9052 102.672 15.1746 102.099 14.6012C101.525 14.0278 100.795 13.6374 99.9995 13.4792C99.2041 13.321 98.3797 13.4022 97.6306 13.7125C96.8814 14.0228 96.2411 14.5483 95.7906 15.2226C95.3401 15.8968 95.0996 16.6895 95.0996 17.5004C95.0996 18.5878 95.5316 19.6306 96.3005 20.3995C97.0694 21.1684 98.1122 21.6004 99.1996 21.6004Z" fill="#F1F3F9"/>
<path d="M105.2 5.6C105.754 5.6 106.296 5.4358 106.756 5.12814C107.216 4.82047 107.575 4.38318 107.787 3.87154C107.999 3.35991 108.055 2.79689 107.947 2.25375C107.839 1.7106 107.572 1.21168 107.18 0.820092C106.789 0.428505 106.29 0.161834 105.747 0.0537956C105.203 -0.054243 104.64 0.001233 104.129 0.213158C103.617 0.425084 103.18 0.783951 102.872 1.24441C102.565 1.70487 102.4 2.24622 102.4 2.80001C102.4 3.54262 102.695 4.25483 103.22 4.77993C103.746 5.30503 104.458 5.6 105.2 5.6Z" fill="#F1F3F9"/>
<path d="M3.80194 21.5004C4.35573 21.5004 4.89709 21.3361 5.35754 21.0285C5.818 20.7208 6.17693 20.2835 6.38885 19.7719C6.60078 19.2603 6.6562 18.6973 6.54816 18.1542C6.44012 17.611 6.17345 17.1121 5.78186 16.7205C5.39027 16.3289 4.89135 16.0622 4.34821 15.9542C3.80506 15.8462 3.2421 15.9016 2.73047 16.1135C2.21884 16.3254 1.78154 16.6844 1.47388 17.1448C1.16621 17.6053 1.00195 18.1466 1.00195 18.7004C1.00195 19.443 1.29698 20.1552 1.82208 20.6803C2.34718 21.2054 3.05933 21.5004 3.80194 21.5004Z" fill="#F1F3F9"/>
<path d="M86.0286 94.5386L18.3926 95.0285C16.5195 95.0348 14.7194 94.3024 13.3828 92.9901C12.0462 91.6778 11.2807 89.8915 11.2526 88.0185L10.7286 23.3085C10.7195 21.4368 11.4498 19.6372 12.7607 18.3012C14.0716 16.9652 15.857 16.2009 17.7286 16.1745L85.3646 15.6895C87.2375 15.6835 89.0373 16.4159 90.3738 17.7279C91.7103 19.0399 92.4759 20.8259 92.5046 22.6985L93.0286 87.4085C93.0401 89.2806 92.3105 91.0811 90.9989 92.417C89.6874 93.7529 87.9005 94.5156 86.0286 94.5386Z" fill="white" stroke="#D6DCE8" stroke-width="2" stroke-miterlimit="10"/>
<path d="M82.2212 84.8788L22.7632 85.3287C22.3657 85.3356 21.9708 85.2635 21.6015 85.1165C21.2321 84.9694 20.8957 84.7504 20.6117 84.4722C20.3278 84.194 20.1019 83.8621 19.9473 83.4959C19.7927 83.1296 19.7124 82.7363 19.7112 82.3387L19.2602 28.8548C19.2537 28.4575 19.3262 28.0628 19.4735 27.6938C19.6208 27.3247 19.8399 26.9886 20.1182 26.7049C20.3965 26.4212 20.7283 26.1957 21.0945 26.0413C21.4606 25.887 21.8538 25.8069 22.2512 25.8058L81.7082 25.3558C82.1058 25.3501 82.5006 25.4233 82.8698 25.571C83.239 25.7188 83.5752 25.9383 83.8591 26.2168C84.143 26.4953 84.3688 26.8272 84.5237 27.1935C84.6785 27.5598 84.7592 27.9531 84.7611 28.3508L85.2122 81.8287C85.2188 82.2261 85.1464 82.6209 84.9992 82.9901C84.8519 83.3593 84.6328 83.6955 84.3545 83.9793C84.0762 84.263 83.7443 84.4887 83.3781 84.6431C83.0119 84.7975 82.6186 84.8777 82.2212 84.8788Z" fill="#F1F3F9"/>
<path d="M53.4673 64.809L31.7773 64.959L42.5294 52.584L53.4673 64.809Z" fill="#AAB2C5"/>
<path d="M71.4525 64.6583L40.1855 64.8883L55.6705 47.1133L71.4525 64.6583Z" fill="#D6DCE8"/>
<path d="M42.5086 47.1409C43.124 46.6126 43.569 45.9137 43.7872 45.1325C44.0054 44.3513 43.9869 43.523 43.7342 42.7523C43.4815 41.9816 43.006 41.3032 42.3677 40.8029C41.7293 40.3025 40.9569 40.0027 40.1482 39.9414C39.3394 39.8801 38.5307 40.0601 37.8242 40.4585C37.1177 40.8569 36.5453 41.4559 36.1794 42.1798C35.8134 42.9036 35.6703 43.7197 35.7683 44.5248C35.8662 45.3299 36.2008 46.0879 36.7296 46.7029C37.4381 47.5269 38.4448 48.0358 39.5284 48.1179C40.612 48.2001 41.6839 47.8487 42.5086 47.1409Z" fill="#AAB2C5"/>
<path d="M66.9389 92.198C66.6296 93.5287 66.1881 94.8251 65.6209 96.068C64.1491 98.9127 61.8156 101.219 58.954 102.658C55.8984 104.231 52.3925 104.697 49.032 103.978C45.1548 103.096 41.7779 100.729 39.6252 97.3859C37.4726 94.0427 36.7157 89.9891 37.5169 86.0944C38.3181 82.1996 40.6135 78.774 43.911 76.5519C47.2084 74.3299 51.2454 73.4885 55.156 74.2081C58.0416 74.8508 60.6958 76.2722 62.83 78.318C64.6182 80.1053 65.931 82.3116 66.6487 84.7358C67.3663 87.1601 67.4661 89.7253 66.9389 92.198Z" fill="#D6DCE8" stroke="#AAB2C5" stroke-width="2" stroke-miterlimit="10"/>
<path d="M56.9388 86.7781H54.4499V84.2881C54.4563 83.9797 54.4011 83.6731 54.2875 83.3864C54.1739 83.0996 54.0042 82.8383 53.7884 82.6179C53.5726 82.3976 53.3149 82.2225 53.0305 82.103C52.7462 81.9835 52.4408 81.9219 52.1324 81.9219C51.8239 81.9219 51.5186 81.9835 51.2342 82.103C50.9498 82.2225 50.6922 82.3976 50.4764 82.6179C50.2605 82.8383 50.0908 83.0996 49.9772 83.3864C49.8636 83.6731 49.8085 83.9797 49.8149 84.2881V86.7781H47.3259C46.7106 86.7781 46.1204 87.0224 45.6854 87.4575C45.2503 87.8926 45.0059 88.4827 45.0059 89.098C45.0059 89.7133 45.2503 90.3034 45.6854 90.7385C46.1204 91.1736 46.7106 91.4181 47.3259 91.4181H49.8149V93.8981C49.8085 94.2065 49.8636 94.513 49.9772 94.7998C50.0908 95.0866 50.2605 95.3478 50.4764 95.5681C50.6922 95.7885 50.9498 95.9636 51.2342 96.0831C51.5186 96.2026 51.8239 96.2642 52.1324 96.2642C52.4408 96.2642 52.7462 96.2026 53.0305 96.0831C53.3149 95.9636 53.5726 95.7885 53.7884 95.5681C54.0042 95.3478 54.1739 95.0866 54.2875 94.7998C54.4011 94.513 54.4563 94.2065 54.4499 93.8981V91.4181H56.9388C57.5541 91.4181 58.1443 91.1736 58.5793 90.7385C59.0144 90.3034 59.2589 89.7133 59.2589 89.098C59.2589 88.4827 59.0144 87.8926 58.5793 87.4575C58.1443 87.0224 57.5541 86.7781 56.9388 86.7781Z" fill="white" stroke="#AAB2C5" stroke-width="2"/>
</svg>
